<?xml version="1.0" encoding="UTF-8" standalone="no"?><svg xmlns="http://www.w3.org/2000/svg" xmlns:xlink="http://www.w3.org/1999/xlink" contentScriptType="application/ecmascript" contentStyleType="text/css" height="869px" preserveAspectRatio="none" style="width:632px;height:869px;" version="1.1" viewBox="0 0 632 869" width="632px" zoomAndPan="magnify"><defs><filter height="300%" id="f4t568pt5j2uq" width="300%" x="-1" y="-1"><feGaussianBlur result="blurOut" stdDeviation="2.0"/><feColorMatrix in="blurOut" result="blurOut2" type="matrix" values="0 0 0 0 0 0 0 0 0 0 0 0 0 0 0 0 0 0 .4 0"/><feOffset dx="4.0" dy="4.0" in="blurOut2" result="blurOut3"/><feBlend in="SourceGraphic" in2="blurOut3" mode="normal"/></filter></defs><g><ellipse cx="176.5" cy="20" fill="#000000" filter="url(#f4t568pt5j2uq)" rx="10" ry="10" style="stroke: none; stroke-width: 1.0;"/><path d="M233.5,54.324 L233.5,64.1123 L213.5,68.1123 L233.5,72.1123 L233.5,81.9006 A0,0 0 0 0 233.5,81.9006 L364.5,81.9006 A0,0 0 0 0 364.5,81.9006 L364.5,64.324 L354.5,54.324 L233.5,54.324 A0,0 0 0 0 233.5,54.324 " fill="#FBFB77" filter="url(#f4t568pt5j2uq)" style="stroke: #A80036; stroke-width: 1.0;"/><path d="M354.5,54.324 L354.5,64.324 L364.5,64.324 L354.5,54.324 " fill="#FBFB77" style="stroke: #A80036; stroke-width: 1.0;"/><text fill="#000000" font-family="sans-serif" font-size="13" lengthAdjust="spacingAndGlyphs" textLength="110" x="239.5" y="73.3269">const int size = 11</text><rect fill="#FEFECE" filter="url(#f4t568pt5j2uq)" height="36.2246" style="stroke: #A80036; stroke-width: 1.5;" width="74" x="139.5" y="50"/><text fill="#000000" font-family="sans-serif" font-size="12" lengthAdjust="spacingAndGlyphs" textLength="48" x="152.5" y="72.9258">size = 11</text><path d="M254,110.5486 L254,120.3369 L234,124.3369 L254,128.3369 L254,138.1252 A0,0 0 0 0 254,138.1252 L497,138.1252 A0,0 0 0 0 497,138.1252 L497,120.5486 L487,110.5486 L254,110.5486 A0,0 0 0 0 254,110.5486 " fill="#FBFB77" filter="url(#f4t568pt5j2uq)" style="stroke: #A80036; stroke-width: 1.0;"/><path d="M487,110.5486 L487,120.5486 L497,120.5486 L487,110.5486 " fill="#FBFB77" style="stroke: #A80036; stroke-width: 1.0;"/><text fill="#000000" font-family="sans-serif" font-size="13" lengthAdjust="spacingAndGlyphs" textLength="222" x="260" y="129.5515">float массив с последовательностью</text><rect fill="#FEFECE" filter="url(#f4t568pt5j2uq)" height="36.2246" style="stroke: #A80036; stroke-width: 1.5;" width="115" x="119" y="106.2246"/><text fill="#000000" font-family="sans-serif" font-size="12" lengthAdjust="spacingAndGlyphs" textLength="89" x="132" y="129.1504">arr[size] = {0.0}</text><path d="M235.5,166.7732 L235.5,176.5615 L215.5,180.5615 L235.5,184.5615 L235.5,194.3499 A0,0 0 0 0 235.5,194.3499 L620.5,194.3499 A0,0 0 0 0 620.5,194.3499 L620.5,176.7732 L610.5,166.7732 L235.5,166.7732 A0,0 0 0 0 235.5,166.7732 " fill="#FBFB77" filter="url(#f4t568pt5j2uq)" style="stroke: #A80036; stroke-width: 1.0;"/><path d="M610.5,166.7732 L610.5,176.7732 L620.5,176.7732 L610.5,166.7732 " fill="#FBFB77" style="stroke: #A80036; stroke-width: 1.0;"/><text fill="#000000" font-family="sans-serif" font-size="13" lengthAdjust="spacingAndGlyphs" textLength="364" x="241.5" y="185.7761">float переменная хранящая расчет каждого i-того элемента</text><rect fill="#FEFECE" filter="url(#f4t568pt5j2uq)" height="36.2246" style="stroke: #A80036; stroke-width: 1.5;" width="78" x="137.5" y="162.4492"/><text fill="#000000" font-family="sans-serif" font-size="12" lengthAdjust="spacingAndGlyphs" textLength="52" x="150.5" y="185.375">calc = 0.0</text><path d="M221.5,222.9978 L221.5,232.7861 L201.5,236.7861 L221.5,240.7861 L221.5,250.5745 A0,0 0 0 0 221.5,250.5745 L449.5,250.5745 A0,0 0 0 0 449.5,250.5745 L449.5,232.9978 L439.5,222.9978 L221.5,222.9978 A0,0 0 0 0 221.5,222.9978 " fill="#FBFB77" filter="url(#f4t568pt5j2uq)" style="stroke: #A80036; stroke-width: 1.0;"/><path d="M439.5,222.9978 L439.5,232.9978 L449.5,232.9978 L439.5,222.9978 " fill="#FBFB77" style="stroke: #A80036; stroke-width: 1.0;"/><text fill="#000000" font-family="sans-serif" font-size="13" lengthAdjust="spacingAndGlyphs" textLength="207" x="227.5" y="242.0007">int счетчик для перебора массива</text><rect fill="#FEFECE" filter="url(#f4t568pt5j2uq)" height="36.2246" style="stroke: #A80036; stroke-width: 1.5;" width="50" x="151.5" y="218.6738"/><text fill="#000000" font-family="sans-serif" font-size="12" lengthAdjust="spacingAndGlyphs" textLength="24" x="164.5" y="241.5996">i = 0</text><path d="M224,336.571 L224,346.3594 L204,350.3594 L224,354.3594 L224,364.1477 A0,0 0 0 0 224,364.1477 L436,364.1477 A0,0 0 0 0 436,364.1477 L436,346.571 L426,336.571 L224,336.571 A0,0 0 0 0 224,336.571 " fill="#FBFB77" filter="url(#f4t568pt5j2uq)" style="stroke: #A80036; stroke-width: 1.0;"/><path d="M426,336.571 L426,346.571 L436,346.571 L426,336.571 " fill="#FBFB77" style="stroke: #A80036; stroke-width: 1.0;"/><text fill="#000000" font-family="sans-serif" font-size="13" lengthAdjust="spacingAndGlyphs" textLength="191" x="230" y="355.574">Пользовательский ввод данных</text><polygon fill="#FEFECE" filter="url(#f4t568pt5j2uq)" points="149,332.2471,214,332.2471,204,350.3594,214,368.4717,149,368.4717" style="stroke: #A80036; stroke-width: 1.5;"/><text fill="#000000" font-family="sans-serif" font-size="12" lengthAdjust="spacingAndGlyphs" textLength="29" x="162" y="355.1729">arr[i]</text><rect fill="#FEFECE" filter="url(#f4t568pt5j2uq)" height="36.2246" style="stroke: #A80036; stroke-width: 1.5;" width="67" x="143" y="396.5354"/><text fill="#000000" font-family="sans-serif" font-size="12" lengthAdjust="spacingAndGlyphs" textLength="41" x="156" y="419.4612">i = i + 1</text><polygon fill="#FEFECE" filter="url(#f4t568pt5j2uq)" points="158.5,274.8984,194.5,274.8984,206.5,286.8984,194.5,298.8984,158.5,298.8984,146.5,286.8984,158.5,274.8984" style="stroke: #A80036; stroke-width: 1.5;"/><text fill="#000000" font-family="sans-serif" font-size="11" lengthAdjust="spacingAndGlyphs" textLength="12" x="180.5" y="310.7471">да</text><text fill="#000000" font-family="sans-serif" font-size="11" lengthAdjust="spacingAndGlyphs" textLength="36" x="158.5" y="291.3108">i &lt; size</text><text fill="#000000" font-family="sans-serif" font-size="11" lengthAdjust="spacingAndGlyphs" textLength="17" x="129.5" y="283.8745">нет</text><rect fill="#FEFECE" filter="url(#f4t568pt5j2uq)" height="36.2246" style="stroke: #A80036; stroke-width: 1.5;" width="50" x="151.5" y="474.76"/><text fill="#000000" font-family="sans-serif" font-size="12" lengthAdjust="spacingAndGlyphs" textLength="24" x="164.5" y="497.6858">i = 0</text><path d="M328,598.1812 L328,607.9695 L308,611.9695 L328,615.9695 L328,625.7578 A0,0 0 0 0 328,625.7578 L543,625.7578 A0,0 0 0 0 543,625.7578 L543,608.1812 L533,598.1812 L328,598.1812 A0,0 0 0 0 328,598.1812 " fill="#FBFB77" filter="url(#f4t568pt5j2uq)" style="stroke: #A80036; stroke-width: 1.0;"/><path d="M533,598.1812 L533,608.1812 L543,608.1812 L533,598.1812 " fill="#FBFB77" style="stroke: #A80036; stroke-width: 1.0;"/><text fill="#000000" font-family="sans-serif" font-size="13" lengthAdjust="spacingAndGlyphs" textLength="194" x="334" y="617.1841">Расчет каждого i-того элемента</text><rect fill="#FEFECE" filter="url(#f4t568pt5j2uq)" height="36.2246" style="stroke: #A80036; stroke-width: 1.5;" width="263" x="45" y="593.8572"/><line style="stroke: #A80036; stroke-width: 1.5;" x1="50" x2="50" y1="593.8572" y2="630.0818"/><line style="stroke: #A80036; stroke-width: 1.5;" x1="303" x2="303" y1="593.8572" y2="630.0818"/><text fill="#000000" font-family="sans-serif" font-size="12" lengthAdjust="spacingAndGlyphs" textLength="237" x="58" y="616.783">calc = sqrt(fabs(arr[i])) + 5 * pow(arr[i], 3)</text><path d="M279.5,703.842 L279.5,713.6304 L259.5,717.6304 L279.5,721.6304 L279.5,731.4187 A0,0 0 0 0 279.5,731.4187 L449.5,731.4187 A0,0 0 0 0 449.5,731.4187 L449.5,713.842 L439.5,703.842 L279.5,703.842 A0,0 0 0 0 279.5,703.842 " fill="#FBFB77" filter="url(#f4t568pt5j2uq)" style="stroke: #A80036; stroke-width: 1.0;"/><path d="M439.5,703.842 L439.5,713.842 L449.5,713.842 L439.5,703.842 " fill="#FBFB77" style="stroke: #A80036; stroke-width: 1.0;"/><text fill="#000000" font-family="sans-serif" font-size="13" lengthAdjust="spacingAndGlyphs" textLength="149" x="285.5" y="722.845">Уведомить пользователя</text><polygon fill="#FEFECE" filter="url(#f4t568pt5j2uq)" points="93.5,699.5181,259.5,699.5181,269.5,717.6304,259.5,735.7427,93.5,735.7427" style="stroke: #A80036; stroke-width: 1.5;"/><text fill="#000000" font-family="sans-serif" font-size="12" lengthAdjust="spacingAndGlyphs" textLength="140" x="106.5" y="722.4438">Результат превышает 400</text><polygon fill="#FEFECE" filter="url(#f4t568pt5j2uq)" points="148.5,650.0818,204.5,650.0818,216.5,662.0818,204.5,674.0818,148.5,674.0818,136.5,662.0818,148.5,650.0818" style="stroke: #A80036; stroke-width: 1.5;"/><text fill="#000000" font-family="sans-serif" font-size="11" lengthAdjust="spacingAndGlyphs" textLength="12" x="180.5" y="685.9304">да</text><text fill="#000000" font-family="sans-serif" font-size="11" lengthAdjust="spacingAndGlyphs" textLength="56" x="148.5" y="666.4941">calc &gt; 400</text><polygon fill="#FEFECE" filter="url(#f4t568pt5j2uq)" points="176.5,755.7427,188.5,767.7427,176.5,779.7427,164.5,767.7427,176.5,755.7427" style="stroke: #A80036; stroke-width: 1.5;"/><rect fill="#FEFECE" filter="url(#f4t568pt5j2uq)" height="36.2246" style="stroke: #A80036; stroke-width: 1.5;" width="67" x="143" y="799.7427"/><text fill="#000000" font-family="sans-serif" font-size="12" lengthAdjust="spacingAndGlyphs" textLength="41" x="156" y="822.6685">i = i + 1</text><polygon fill="#FEFECE" filter="url(#f4t568pt5j2uq)" points="158.5,530.9846,194.5,530.9846,206.5,542.9846,194.5,554.9846,158.5,554.9846,146.5,542.9846,158.5,530.9846" style="stroke: #A80036; stroke-width: 1.5;"/><text fill="#000000" font-family="sans-serif" font-size="11" lengthAdjust="spacingAndGlyphs" textLength="12" x="180.5" y="566.8333">да</text><text fill="#000000" font-family="sans-serif" font-size="11" lengthAdjust="spacingAndGlyphs" textLength="36" x="158.5" y="547.397">i &lt; size</text><text fill="#000000" font-family="sans-serif" font-size="11" lengthAdjust="spacingAndGlyphs" textLength="17" x="129.5" y="539.9607">нет</text><ellipse cx="24" cy="589.9846" fill="#FFFFFF" filter="url(#f4t568pt5j2uq)" rx="11" ry="11" style="stroke: #000000; stroke-width: 1.0;"/><ellipse cx="24" cy="589.9846" fill="#000000" rx="6" ry="6" style="stroke: #7F7F7F; stroke-width: 1.0;"/><line style="stroke: #A80036; stroke-width: 1.5;" x1="176.5" x2="176.5" y1="30" y2="50"/><polygon fill="#A80036" points="172.5,40,176.5,50,180.5,40,176.5,44" style="stroke: #A80036; stroke-width: 1.0;"/><line style="stroke: #A80036; stroke-width: 1.5;" x1="176.5" x2="176.5" y1="86.2246" y2="106.2246"/><polygon fill="#A80036" points="172.5,96.2246,176.5,106.2246,180.5,96.2246,176.5,100.2246" style="stroke: #A80036; stroke-width: 1.0;"/><line style="stroke: #A80036; stroke-width: 1.5;" x1="176.5" x2="176.5" y1="142.4492" y2="162.4492"/><polygon fill="#A80036" points="172.5,152.4492,176.5,162.4492,180.5,152.4492,176.5,156.4492" style="stroke: #A80036; stroke-width: 1.0;"/><line style="stroke: #A80036; stroke-width: 1.5;" x1="176.5" x2="176.5" y1="198.6738" y2="218.6738"/><polygon fill="#A80036" points="172.5,208.6738,176.5,218.6738,180.5,208.6738,176.5,212.6738" style="stroke: #A80036; stroke-width: 1.0;"/><line style="stroke: #A80036; stroke-width: 1.5;" x1="176.5" x2="176.5" y1="368.4717" y2="396.5354"/><polygon fill="#A80036" points="172.5,386.5354,176.5,396.5354,180.5,386.5354,176.5,390.5354" style="stroke: #A80036; stroke-width: 1.0;"/><line style="stroke: #A80036; stroke-width: 1.5;" x1="176.5" x2="176.5" y1="298.8984" y2="332.2471"/><polygon fill="#A80036" points="172.5,322.2471,176.5,332.2471,180.5,322.2471,176.5,326.2471" style="stroke: #A80036; stroke-width: 1.0;"/><line style="stroke: #A80036; stroke-width: 1.5;" x1="176.5" x2="176.5" y1="432.76" y2="442.76"/><line style="stroke: #A80036; stroke-width: 1.5;" x1="176.5" x2="448" y1="442.76" y2="442.76"/><polygon fill="#A80036" points="444,376.5354,448,366.5354,452,376.5354,448,372.5354" style="stroke: #A80036; stroke-width: 1.5;"/><line style="stroke: #A80036; stroke-width: 1.5;" x1="448" x2="448" y1="286.8984" y2="442.76"/><line style="stroke: #A80036; stroke-width: 1.5;" x1="448" x2="206.5" y1="286.8984" y2="286.8984"/><polygon fill="#A80036" points="216.5,282.8984,206.5,286.8984,216.5,290.8984,212.5,286.8984" style="stroke: #A80036; stroke-width: 1.0;"/><line style="stroke: #A80036; stroke-width: 1.5;" x1="146.5" x2="131" y1="286.8984" y2="286.8984"/><polygon fill="#A80036" points="127,362.5354,131,372.5354,135,362.5354,131,366.5354" style="stroke: #A80036; stroke-width: 1.5;"/><line style="stroke: #A80036; stroke-width: 1.5;" x1="131" x2="131" y1="286.8984" y2="454.76"/><line style="stroke: #A80036; stroke-width: 1.5;" x1="131" x2="176.5" y1="454.76" y2="454.76"/><line style="stroke: #A80036; stroke-width: 1.5;" x1="176.5" x2="176.5" y1="454.76" y2="474.76"/><polygon fill="#A80036" points="172.5,464.76,176.5,474.76,180.5,464.76,176.5,468.76" style="stroke: #A80036; stroke-width: 1.0;"/><line style="stroke: #A80036; stroke-width: 1.5;" x1="176.5" x2="176.5" y1="254.8984" y2="274.8984"/><polygon fill="#A80036" points="172.5,264.8984,176.5,274.8984,180.5,264.8984,176.5,268.8984" style="stroke: #A80036; stroke-width: 1.0;"/><line style="stroke: #A80036; stroke-width: 1.5;" x1="176.5" x2="176.5" y1="674.0818" y2="699.5181"/><polygon fill="#A80036" points="172.5,689.5181,176.5,699.5181,180.5,689.5181,176.5,693.5181" style="stroke: #A80036; stroke-width: 1.0;"/><line style="stroke: #A80036; stroke-width: 1.5;" x1="216.5" x2="459.5" y1="662.0818" y2="662.0818"/><polygon fill="#A80036" points="455.5,707.6304,459.5,717.6304,463.5,707.6304,459.5,711.6304" style="stroke: #A80036; stroke-width: 1.5;"/><line style="stroke: #A80036; stroke-width: 1.5;" x1="459.5" x2="459.5" y1="662.0818" y2="767.7427"/><line style="stroke: #A80036; stroke-width: 1.5;" x1="459.5" x2="188.5" y1="767.7427" y2="767.7427"/><polygon fill="#A80036" points="198.5,763.7427,188.5,767.7427,198.5,771.7427,194.5,767.7427" style="stroke: #A80036; stroke-width: 1.0;"/><line style="stroke: #A80036; stroke-width: 1.5;" x1="176.5" x2="176.5" y1="735.7427" y2="755.7427"/><polygon fill="#A80036" points="172.5,745.7427,176.5,755.7427,180.5,745.7427,176.5,749.7427" style="stroke: #A80036; stroke-width: 1.0;"/><line style="stroke: #A80036; stroke-width: 1.5;" x1="176.5" x2="176.5" y1="630.0818" y2="650.0818"/><polygon fill="#A80036" points="172.5,640.0818,176.5,650.0818,180.5,640.0818,176.5,644.0818" style="stroke: #A80036; stroke-width: 1.0;"/><line style="stroke: #A80036; stroke-width: 1.5;" x1="176.5" x2="176.5" y1="779.7427" y2="799.7427"/><polygon fill="#A80036" points="172.5,789.7427,176.5,799.7427,180.5,789.7427,176.5,793.7427" style="stroke: #A80036; stroke-width: 1.0;"/><line style="stroke: #A80036; stroke-width: 1.5;" x1="176.5" x2="176.5" y1="554.9846" y2="593.8572"/><polygon fill="#A80036" points="172.5,583.8572,176.5,593.8572,180.5,583.8572,176.5,587.8572" style="stroke: #A80036; stroke-width: 1.0;"/><line style="stroke: #A80036; stroke-width: 1.5;" x1="176.5" x2="176.5" y1="835.9673" y2="845.9673"/><line style="stroke: #A80036; stroke-width: 1.5;" x1="176.5" x2="555" y1="845.9673" y2="845.9673"/><polygon fill="#A80036" points="551,708.1941,555,698.1941,559,708.1941,555,704.1941" style="stroke: #A80036; stroke-width: 1.5;"/><line style="stroke: #A80036; stroke-width: 1.5;" x1="555" x2="555" y1="542.9846" y2="845.9673"/><line style="stroke: #A80036; stroke-width: 1.5;" x1="555" x2="206.5" y1="542.9846" y2="542.9846"/><polygon fill="#A80036" points="216.5,538.9846,206.5,542.9846,216.5,546.9846,212.5,542.9846" style="stroke: #A80036; stroke-width: 1.0;"/><line style="stroke: #A80036; stroke-width: 1.5;" x1="146.5" x2="24" y1="542.9846" y2="542.9846"/><line style="stroke: #A80036; stroke-width: 1.5;" x1="24" x2="24" y1="542.9846" y2="578.9846"/><polygon fill="#A80036" points="20,568.9846,24,578.9846,28,568.9846,24,572.9846" style="stroke: #A80036; stroke-width: 1.0;"/><line style="stroke: #A80036; stroke-width: 1.5;" x1="176.5" x2="176.5" y1="510.9846" y2="530.9846"/><polygon fill="#A80036" points="172.5,520.9846,176.5,530.9846,180.5,520.9846,176.5,524.9846" style="stroke: #A80036; stroke-width: 1.0;"/><!--MD5=[94e1cd672fe73e3c145566a82f46c5a7]
@startuml

start

: size = 11 ]
note right: const int size = 11
: arr[size] = {0.0} ]
note right: float массив с последовательностью
: calc = 0.0 ]
note right: float переменная хранящая расчет каждого i-того элемента
: i = 0 ]
note right: int счетчик для перебора массива

while (i < size) is (да)
: arr[i] <
note right: Пользовательский ввод данных
: i = i + 1 ]
endwhile (нет)

: i = 0 ]

while (i < size) is (да)
: calc = sqrt(fabs(arr[i])) + 5 * pow(arr[i], 3) |
note right: Расчет каждого i-того элемента
if (calc > 400) then (да)
: Результат превышает 400 >
note right: Уведомить пользователя
endif
: i = i + 1 ]
endwhile (нет)

stop

@enduml

PlantUML version 1.2019.11(Sun Sep 22 13:02:15 MSK 2019)
(EPL source distribution)
Java Runtime: OpenJDK Runtime Environment
JVM: OpenJDK 64-Bit Server VM
Java Version: 15.0.1+9-18
Operating System: Linux
Default Encoding: UTF-8
Language: ru
Country: RU
--></g></svg>